JoggingL1_filt_ID.mot
version=1
datacolumns 20
datarows 40
range 1.430000 1.820000
inDegrees=yes
endheader
time	pelvis_tilt	pelvis_list	pelvis_rotation	hip_flexion_r	hip_adduction_r	hip_rotation_r	knee_angle_r	ankle_angle_r	hip_flexion_l	hip_adduction_l	hip_rotation_l	knee_angle_l	ankle_angle_l	pelvis_tx	pelvis_ty	pelvis_tz	lumbar_bending	lumbar_rotation	lumbar_extension
1.430000	18.085334	0.261779	-183.805655	26.076091	0.333885	-4.213010	-36.612358	19.325411	46.088751	-7.871833	-4.619958	-60.873709	12.658460	0.035645	0.927742	-0.033613	3.907288	0.040200	4.988113
1.440000	17.741875	0.284143	-183.647937	23.483638	0.356315	-4.601218	-34.788519	17.928126	45.692442	-7.301754	-4.424260	-56.550807	12.448305	0.015039	0.933098	-0.034633	4.200949	-0.214903	4.951092
1.450000	17.332972	0.380736	-183.454185	20.908613	0.425796	-5.016163	-33.129314	16.371676	45.083461	-6.703640	-4.168727	-51.923637	12.012936	-0.005702	0.938334	-0.035497	4.477918	-0.399327	4.865138
1.460000	16.858549	0.567759	-183.230621	18.370344	0.564030	-5.426296	-31.657186	14.665114	44.293409	-6.112240	-3.835010	-47.087547	11.392504	-0.026534	0.943361	-0.036202	4.744390	-0.500427	4.722921
1.470000	16.327489	0.849713	-182.991613	15.894399	0.783189	-5.791036	-30.376652	12.784823	43.358800	-5.564313	-3.404907	-42.148835	10.628170	-0.047426	0.948100	-0.036756	5.005470	-0.512384	4.527341
1.480000	15.759240	1.218253	-182.756313	13.516830	1.081153	-6.075410	-29.286944	10.695148	42.322698	-5.090763	-2.869075	-37.215411	9.766269	-0.068365	0.952483	-0.037179	5.262271	-0.436422	4.291192
1.490000	15.182089	1.653951	-182.543729	11.283548	1.441485	-6.259046	-28.393804	8.377347	41.234554	-4.709954	-2.233892	-32.390396	8.860402	-0.089348	0.956446	-0.037497	5.510737	-0.281935	4.034538
1.500000	14.626764	2.131347	-182.368211	9.242925	1.838680	-6.335852	-27.714418	5.849578	40.145953	-4.425533	-1.519735	-27.770775	7.969890	-0.110375	0.959932	-0.037742	5.743305	-0.066383	3.779788
1.510000	14.118890	2.625371	-182.237501	7.435839	2.245516	-6.306186	-27.274223	3.176293	39.104244	-4.229659	-0.756063	-23.448677	7.159213	-0.131448	0.962881	-0.037939	5.952957	0.187276	3.547296
1.520000	13.674466	3.116777	-182.153550	5.888738	2.638758	-6.170197	-27.098663	0.464830	38.147518	-4.109377	0.020685	-19.511621	6.496904	-0.152557	0.965237	-0.038104	6.137083	0.455522	3.353361
1.530000	13.300823	3.594384	-182.113947	4.613579	3.000815	-5.932015	-27.203675	-2.168725	37.304075	-4.051628	0.770758	-16.038699	6.039302	-0.173686	0.966950	-0.038241	6.297808	0.719374	3.211017
1.540000	13.001834	4.053453	-182.114150	3.614033	3.318110	-5.611438	-27.589209	-4.655011	36.595501	-4.045611	1.457038	-13.093144	5.800914	-0.194817	0.967978	-0.038349	6.439939	0.967032	3.132312
1.550000	12.780691	4.491942	-182.149986	2.890349	3.578140	-5.250417	-28.240651	-6.998799	36.037580	-4.083015	2.049513	-10.716392	5.737272	-0.215929	0.968293	-0.038427	6.568283	1.193524	3.127333
1.560000	12.634283	4.905494	-182.217471	2.435074	3.764696	-4.903234	-29.137860	-9.252821	35.634287	-4.154388	2.528221	-8.928272	5.752662	-0.236999	0.967873	-0.038476	6.683975	1.396997	3.195981
1.570000	12.542599	5.282287	-182.311042	2.223237	3.852523	-4.612106	-30.266841	-11.463010	35.368937	-4.243611	2.884956	-7.733590	5.722867	-0.257993	0.966700	-0.038501	6.782408	1.572651	3.316806
1.580000	12.471964	5.601735	-182.423656	2.218003	3.807937	-4.393203	-31.630329	-13.621346	35.212221	-4.326679	3.121603	-7.133705	5.526361	-0.278858	0.964769	-0.038506	6.854860	1.708182	3.451241
1.590000	12.398674	5.838832	-182.548720	2.398320	3.597987	-4.247427	-33.252986	-15.654109	35.152869	-4.376154	3.246111	-7.139149	5.081036	-0.299538	0.962096	-0.038499	6.891446	1.783618	3.568929
1.600000	12.327024	5.971305	-182.680446	2.778923	3.202063	-4.173922	-35.176535	-17.450048	35.219901	-4.367321	3.271160	-7.774814	4.373707	-0.319974	0.958729	-0.038487	6.882455	1.776000	3.667459
1.610000	12.281472	5.986456	-182.810937	3.400277	2.619658	-4.167491	-37.446446	-18.895968	35.471731	-4.282923	3.215544	-9.071364	3.470003	-0.340094	0.954745	-0.038481	6.817806	1.667658	3.765977
1.620000	12.284827	5.885426	-182.928083	4.301717	1.872253	-4.212737	-40.095531	-19.898497	35.963446	-4.116372	3.103357	-11.045080	2.509139	-0.359801	0.950247	-0.038496	6.687677	1.454069	3.884207
1.630000	12.346415	5.683238	-183.019039	5.503999	0.999970	-4.292046	-43.128514	-20.401582	36.719541	-3.873689	2.958185	-13.674092	1.690095	-0.378989	0.945351	-0.038546	6.486511	1.146704	4.030315
1.640000	12.466426	5.404613	-183.077326	7.009068	0.054352	-4.397350	-46.511754	-20.393758	37.724084	-3.572913	2.794728	-16.879219	1.238557	-0.397577	0.940185	-0.038642	6.217897	0.769662	4.203985
1.650000	12.641860	5.077320	-183.107073	8.803172	-0.911196	-4.528030	-50.169879	-19.894575	38.919637	-3.239766	2.614914	-20.516828	1.352456	-0.415539	0.934890	-0.038792	5.895967	0.352673	4.400913
1.660000	12.865561	4.726034	-183.120455	10.854775	-1.850911	-4.679570	-53.990066	-18.933770	40.210518	-2.900120	2.411556	-24.389597	2.148973	-0.432905	0.929625	-0.038998	5.540874	-0.076102	4.611087
1.670000	13.124567	4.368941	-183.130835	13.114051	-2.732783	-4.837300	-57.834811	-17.541160	41.476601	-2.572814	2.173688	-28.274829	3.633353	-0.449760	0.924568	-0.039248	5.171086	-0.495181	4.817596
1.680000	13.401073	4.017864	-183.146848	15.517827	-3.539086	-4.979864	-61.561363	-15.751647	42.596006	-2.267401	1.890062	-31.961566	5.696305	-0.466213	0.919897	-0.039522	4.798011	-0.891274	4.999397
1.690000	13.673064	3.681217	-183.170022	17.996294	-4.262056	-5.088303	-65.041838	-13.616801	43.466541	-1.987665	1.552733	-35.284261	8.138670	-0.482379	0.915771	-0.039791	4.425492	-1.256928	5.134783
1.700000	13.918072	3.367952	-183.197114	20.483533	-4.896863	-5.155163	-68.178254	-11.212981	44.023281	-1.738888	1.160173	-38.144168	10.715582	-0.498350	0.912303	-0.040029	4.053686	-1.586148	5.208018
1.710000	14.122443	3.090371	-183.225141	22.931652	-5.434972	-5.187734	-70.907793	-8.643786	44.251286	-1.534357	0.719470	-40.514538	13.191265	-0.514194	0.909542	-0.040222	3.683809	-1.870469	5.220040
1.720000	14.285727	2.863384	-183.254339	25.315053	-5.862606	-5.201032	-73.196796	-6.036006	44.181414	-1.394813	0.247357	-42.427454	15.388659	-0.529958	0.907475	-0.040375	3.319529	-2.098185	5.191578
1.730000	14.415558	2.700216	-183.288266	27.620592	-6.164634	-5.204923	-75.027350	-3.526061	43.867521	-1.340875	-0.233419	-43.946512	17.216035	-0.545686	0.906054	-0.040510	2.965809	-2.257436	5.153961
1.740000	14.523972	2.608138	-183.333103	29.838257	-6.328593	-5.197589	-76.383912	-1.235733	43.363900	-1.385079	-0.702617	-45.136669	18.665435	-0.561433	0.905234	-0.040666	2.628083	-2.339865	5.140101
1.750000	14.626658	2.586570	-183.394608	31.956190	-6.348371	-5.173135	-77.245769	0.758068	42.710964	-1.525594	-1.149515	-46.039981	19.784796	-0.577275	0.904994	-0.040884	2.310495	-2.342314	5.179336
1.760000	14.737092	2.626672	-183.472090	33.953288	-6.229946	-5.136135	-77.587469	2.442071	41.923571	-1.740957	-1.572673	-46.661167	20.638390	-0.593308	0.905357	-0.041202	2.012010	-2.267701	5.289545
1.770000	14.860328	2.712280	-183.554513	35.796321	-5.995079	-5.107180	-77.386146	3.851545	40.987834	-1.990906	-1.974985	-46.967572	21.283319	-0.609623	0.906371	-0.041647	1.724211	-2.125732	5.471089
1.780000	14.991852	2.823804	-183.621378	37.445755	-5.678225	-5.113219	-76.632343	5.028609	39.871490	-2.226748	-2.360411	-46.906225	21.766190	-0.626286	0.908086	-0.042230	1.432996	-1.931924	5.706738
1.790000	15.116585	2.944668	-183.645480	38.860116	-5.318557	-5.172486	-75.339220	5.993401	38.538838	-2.405816	-2.734638	-46.432635	22.116464	-0.643314	0.910529	-0.042946	1.122181	-1.704853	5.961472
1.800000	15.207563	3.066593	-183.596989	39.996291	-4.951013	-5.285590	-73.543983	6.747908	36.963225	-2.503261	-3.107248	-45.539629	22.332144	-0.660670	0.913681	-0.043776	0.779376	-1.464261	6.181442
1.810000	15.230998	3.189764	-183.449951	40.814627	-4.599549	-5.435382	-71.298629	7.290943	35.138664	-2.517125	-3.490969	-44.274715	22.380118	-0.678280	0.917473	-0.044696	0.404651	-1.232201	6.299456
1.820000	15.157459	3.316383	-183.188344	41.290516	-4.276968	-5.593809	-68.655161	7.626711	33.088376	-2.463381	-3.895794	-42.737993	22.215233	-0.696054	0.921801	-0.045692	-0.052737	-0.997365	6.287161
